<?xml version="1.0" standalone="no"?>
<!DOCTYPE svg PUBLIC "-//W3C//DTD SVG 20010904//EN"
 "http://www.w3.org/TR/2001/REC-SVG-20010904/DTD/svg10.dtd">
<svg version="1.0" xmlns="http://www.w3.org/2000/svg"
 width="1280.000000pt" height="1280.000000pt" viewBox="0 0 1280.000000 1280.000000"
 preserveAspectRatio="xMidYMid meet">
<metadata>
Created by potrace 1.11, written by Peter Selinger 2001-2013
</metadata>
<g transform="translate(0.000000,1280.000000) scale(0.100000,-0.100000)"
fill="#000000" stroke="none">
<path d="M5945 12284 c-322 -35 -420 -60 -910 -234 -234 -82 -249 -92 -434
-283 -72 -75 -95 -103 -184 -229 -21 -29 -57 -74 -80 -99 -23 -25 -57 -62 -75
-82 -38 -44 -137 -232 -146 -279 -12 -70 -14 -85 -20 -153 -4 -38 -11 -133
-16 -210 -9 -116 -20 -176 -65 -350 -112 -436 -119 -485 -111 -746 4 -112 10
-247 14 -299 10 -138 -2 -321 -36 -525 -53 -316 -53 -298 9 -630 6 -33 13 -71
15 -85 7 -62 44 -260 80 -435 17 -83 51 -289 65 -395 5 -41 16 -111 24 -155
18 -105 22 -137 35 -280 6 -66 13 -140 15 -165 13 -140 16 -276 7 -313 -6 -23
-18 -78 -28 -122 -31 -145 -116 -305 -191 -362 -21 -15 -45 -35 -54 -43 -9 -8
-34 -26 -54 -40 -20 -14 -45 -32 -54 -40 -9 -8 -30 -22 -46 -29 -17 -8 -43
-25 -60 -36 -43 -31 -290 -141 -360 -161 -33 -9 -98 -20 -145 -25 -268 -24
-570 -74 -650 -107 -25 -10 -99 -44 -165 -76 -181 -87 -243 -116 -250 -116 -3
0 -23 -11 -45 -25 -22 -14 -45 -25 -52 -25 -6 0 -19 -6 -27 -14 -9 -7 -54 -30
-101 -51 -122 -53 -294 -136 -300 -145 -3 -4 -25 -20 -50 -35 -175 -110 -322
-259 -435 -443 -45 -74 -116 -178 -156 -229 -27 -35 -49 -65 -49 -67 0 -3 -18
-32 -40 -65 -22 -33 -40 -63 -40 -67 0 -3 -6 -20 -14 -37 -53 -117 -120 -318
-135 -402 -32 -175 -44 -482 -26 -630 2 -16 6 -73 10 -125 9 -129 43 -440 56
-520 6 -36 14 -87 19 -115 4 -27 12 -68 18 -90 23 -85 33 -132 42 -200 12 -90
12 -325 -1 -390 -5 -27 -10 -59 -10 -70 1 -11 -10 -60 -24 -110 -22 -82 -44
-180 -51 -230 -14 -100 -14 -140 -4 -252 6 -70 20 -159 31 -198 11 -38 22 -81
25 -95 3 -14 16 -56 29 -95 47 -138 78 -287 87 -415 l3 -35 2636 -3 2636 -2
18 47 c25 65 49 96 105 132 26 17 80 63 120 101 64 63 72 74 67 100 -6 27 -1
32 87 88 51 33 123 76 158 96 36 20 116 67 178 106 101 62 143 79 124 48 -26
-42 6 -108 51 -108 12 0 60 -24 107 -53 47 -30 112 -66 146 -82 67 -31 70 -35
101 -155 24 -96 65 -192 116 -272 28 -45 32 -48 70 -45 44 2 43 0 31 92 -9 63
-46 207 -57 221 -5 6 -6 13 -3 16 3 3 -5 25 -17 49 -27 53 -69 117 -69 106 0
-21 -51 56 -92 138 -25 50 -53 106 -63 125 -31 60 -35 69 -35 85 0 9 -7 18
-15 22 -9 3 -22 18 -30 33 -12 24 -12 30 4 56 21 34 105 115 211 205 41 34
120 106 176 160 55 53 115 104 132 113 18 9 32 20 32 25 0 5 54 36 119 69 156
79 353 195 416 245 39 30 51 36 53 23 2 -9 7 -16 11 -16 5 0 28 -18 53 -39 30
-27 59 -69 93 -135 27 -53 62 -110 79 -127 25 -25 77 -60 96 -64 74 -15 120
-55 183 -163 20 -35 37 -65 37 -67 0 -11 175 -281 191 -295 3 -3 70 -102 149
-220 79 -118 169 -252 199 -298 31 -45 63 -94 71 -107 73 -118 99 -157 133
-202 l39 -53 1559 0 1559 0 0 1198 c-1 977 -3 1203 -14 1232 -32 82 -51 125
-57 130 -4 3 -23 53 -44 112 -20 59 -45 124 -56 145 -10 20 -19 42 -19 49 0 6
-8 29 -17 50 -9 22 -16 42 -15 46 1 5 -2 8 -8 8 -5 0 -10 7 -10 15 0 8 -11 38
-24 67 -13 29 -36 85 -51 123 -14 39 -31 81 -37 95 -5 14 -16 39 -22 55 -12
28 -55 118 -205 425 -34 70 -61 131 -61 137 0 6 -4 13 -8 15 -4 1 -32 53 -61
113 -100 207 -162 330 -206 410 -25 44 -51 94 -58 110 -19 40 -118 178 -154
213 -63 61 -162 141 -233 187 -66 43 -279 155 -295 155 -3 0 -22 10 -43 23
-20 13 -53 29 -72 36 -19 8 -53 22 -76 32 -22 11 -46 19 -53 19 -6 0 -29 9
-49 19 -20 11 -55 26 -77 35 -22 8 -92 35 -157 60 -64 25 -121 46 -127 46 -6
0 -19 4 -29 9 -17 9 -107 40 -192 65 -25 8 -58 19 -75 26 -16 7 -33 13 -37 12
-3 -1 -55 17 -115 39 -134 50 -273 90 -284 83 -5 -3 -9 -1 -9 4 0 4 -60 21
-132 36 -73 15 -148 34 -166 42 -17 7 -34 13 -35 11 -10 -7 -207 169 -207 185
0 4 -13 29 -28 55 -50 85 -78 191 -88 338 -4 73 -15 155 -39 290 -7 44 -21
127 -30 185 -9 58 -23 130 -30 160 -8 30 -37 163 -65 295 -28 132 -53 249 -56
260 -7 26 -32 182 -44 270 -4 39 -16 174 -24 300 -9 127 -19 248 -21 270 -3
22 -10 72 -15 110 -19 144 -22 162 -51 244 -16 46 -46 116 -65 155 -20 39 -45
94 -55 121 -11 28 -24 59 -29 70 -16 35 -41 136 -62 250 -20 115 -20 157 -2
669 6 169 1 226 -31 321 -7 22 -21 67 -31 100 -9 33 -37 107 -61 165 -58 138
-73 184 -77 224 -2 18 -5 37 -9 42 -3 5 -8 32 -12 59 -8 52 -46 172 -69 215
-7 14 -19 43 -26 65 -22 68 -78 168 -119 212 -21 22 -64 75 -96 117 -80 106
-90 119 -275 316 -91 97 -181 194 -201 216 -20 21 -45 46 -56 55 -50 41 -298
118 -523 162 -41 9 -120 25 -175 36 -259 53 -628 83 -800 65z m1564 -1829
c257 -42 405 -159 478 -379 l26 -81 9 -805 c5 -443 6 -861 2 -930 -7 -124 -12
-3330 -6 -3330 2 0 15 9 29 20 15 11 51 27 80 36 102 30 306 -8 371 -69 78
-72 143 -354 129 -561 -3 -46 -3 -87 0 -90 4 -4 8 -12 10 -19 1 -7 11 -37 22
-67 23 -64 51 -263 51 -360 0 -50 7 -82 31 -140 l32 -75 3 -230 c3 -196 1
-247 -17 -350 -32 -193 -66 -329 -123 -505 -30 -91 -66 -210 -80 -265 -44
-172 -89 -284 -149 -365 -33 -44 -73 -68 -61 -36 4 10 0 18 -10 22 -21 8 -20
23 2 40 15 12 14 13 -11 4 -25 -9 -29 -7 -37 15 -5 14 -14 25 -20 25 -26 0 -6
18 26 25 33 6 35 7 18 20 -18 12 -18 14 -2 32 26 28 13 58 -30 71 -21 6 -47 9
-58 6 -26 -7 -40 29 -18 47 10 9 23 6 53 -9 39 -21 59 -25 98 -23 16 1 21 6
17 16 -4 8 -11 15 -17 15 -6 0 -19 7 -29 17 -17 15 -18 15 -18 0 0 -18 -17
-22 -35 -9 -6 4 -12 20 -13 35 -2 36 -7 43 -32 50 -11 3 -18 1 -14 -4 3 -5 0
-9 -5 -9 -13 0 -13 2 -1 34 12 34 -9 36 -29 4 -18 -29 -20 -78 -3 -78 6 0 12
-4 12 -10 0 -15 -11 -12 -33 7 -19 17 -20 17 -36 -7 -28 -43 -131 -159 -150
-169 -20 -11 -61 -4 -61 10 0 5 -9 18 -20 29 -15 15 -19 30 -16 57 4 40 6 48
25 103 7 19 15 52 18 73 4 33 3 36 -14 30 -24 -9 -42 -34 -36 -50 3 -7 -2 -16
-11 -19 -9 -3 -14 -10 -11 -14 10 -16 -39 -19 -73 -4 -19 7 -47 14 -63 14 -16
0 -29 5 -29 11 0 5 -4 7 -10 4 -5 -3 -10 3 -10 14 0 14 -6 21 -20 21 -13 0
-29 17 -49 52 -17 28 -28 56 -25 60 3 5 2 7 -3 6 -4 -1 -18 4 -31 11 -22 12
-23 14 -7 31 9 10 24 21 34 23 9 2 5 3 -9 2 -50 -6 -166 32 -200 65 -27 27
-36 30 -68 25 -53 -9 -90 -25 -96 -41 -3 -8 -13 -14 -21 -14 -9 0 -37 -14 -62
-32 -26 -17 -52 -31 -59 -31 -7 0 -11 -4 -8 -8 7 -12 -10 -19 -67 -23 -30 -3
-72 -11 -95 -19 -43 -16 -59 -12 -59 13 0 11 -13 15 -57 16 -31 0 -64 6 -72
14 -14 11 -19 10 -36 -5 -10 -9 -23 -14 -28 -11 -6 3 -27 -22 -47 -56 -43 -75
-133 -225 -172 -288 -87 -141 -204 -348 -271 -482 -29 -59 -70 -125 -90 -147
-32 -35 -41 -39 -69 -34 -28 4 -33 9 -33 34 0 26 4 29 30 29 27 0 30 2 24 25
-4 15 0 34 9 48 8 13 17 37 19 53 2 23 8 30 31 32 24 3 40 22 18 22 -15 0 -20
40 -9 65 6 13 22 25 38 29 25 5 29 11 35 53 9 69 11 72 50 89 22 9 35 21 35
33 0 10 11 34 24 53 22 34 38 108 37 176 -1 25 4 35 24 44 14 6 25 14 25 18 0
4 20 29 45 54 42 42 45 49 39 81 -3 19 -2 35 3 35 19 0 32 59 20 90 -6 16 -15
30 -19 30 -4 0 -8 4 -8 10 0 15 -33 50 -47 50 -7 0 -13 4 -13 8 0 5 -10 20
-22 34 -22 25 -65 35 -218 52 -14 1 -32 5 -40 9 -8 3 -45 16 -82 28 -63 20
-69 20 -92 6 -13 -9 -27 -25 -30 -35 -3 -10 -31 -31 -61 -47 -65 -33 -76 -45
-80 -81 -3 -27 40 -104 58 -104 5 0 7 -11 5 -25 -3 -14 -1 -28 4 -31 4 -3 -1
-18 -12 -34 -11 -15 -20 -33 -20 -38 0 -5 -23 -25 -51 -43 -29 -18 -47 -35
-41 -37 13 -4 -52 -72 -69 -72 -7 0 -9 -3 -6 -6 12 -12 -78 -71 -117 -77 -22
-3 -42 -10 -45 -15 -14 -22 -139 -115 -181 -134 -25 -11 -52 -24 -60 -28 -9
-4 -38 -11 -66 -14 -48 -7 -122 -55 -107 -69 3 -4 -6 -11 -21 -16 -14 -6 -26
-14 -26 -19 0 -12 -77 -14 -98 -3 -10 5 -45 11 -78 13 -44 3 -59 8 -59 18 0
14 -38 41 -77 56 -10 3 -18 13 -18 20 0 8 -4 14 -10 14 -5 0 -10 9 -10 20 0
11 -9 25 -20 32 -11 7 -25 29 -30 49 -6 20 -19 46 -30 59 -11 13 -20 29 -20
37 0 7 -5 13 -11 13 -7 0 -9 9 -6 21 4 14 -2 28 -19 44 -13 12 -24 29 -24 38
0 19 -20 33 -21 15 0 -10 -2 -10 -6 0 -2 6 -16 12 -29 12 -14 0 -27 7 -31 17
-4 10 -14 23 -22 30 -14 11 -14 12 2 13 31 0 13 25 -21 28 -36 4 -40 18 -18
60 7 15 16 46 19 70 6 50 27 85 63 109 25 16 27 16 36 0 6 -12 17 -15 36 -11
26 5 26 5 8 -10 -11 -9 -17 -19 -13 -22 4 -4 12 -2 19 4 26 20 96 32 233 37
77 2 150 7 161 9 33 7 277 -11 324 -24 23 -6 56 -13 74 -15 19 -3 46 -10 62
-16 27 -10 28 -12 9 -19 -14 -6 -15 -9 -5 -9 9 -1 21 4 26 9 6 6 18 8 28 4 15
-6 15 -7 -1 -20 -15 -11 -16 -13 -2 -14 26 0 108 82 115 117 3 18 2 33 -5 37
-6 4 -177 7 -381 6 -489 0 -566 11 -719 106 -41 26 -43 26 -32 6 21 -39 -6
-23 -62 38 -87 93 -137 221 -137 347 0 47 4 64 16 71 13 7 18 36 25 148 4 76
10 161 13 187 3 29 1 45 -4 42 -18 -11 -10 14 8 27 11 7 24 29 30 48 15 47 32
193 30 255 -1 47 -2 48 -5 10 -3 -22 -11 -47 -19 -56 -8 -9 -12 -23 -9 -30 3
-8 -3 -24 -14 -35 -10 -12 -26 -35 -35 -52 -23 -45 -48 -49 -86 -12 -17 17
-35 28 -41 25 -20 -13 -77 16 -89 45 -7 17 -20 30 -29 31 -10 0 -11 2 -3 6 17
7 15 33 -4 33 -8 0 -13 4 -10 9 3 5 -1 12 -9 15 -8 3 -14 11 -13 17 4 14 -39
22 -47 9 -4 -6 -22 2 -43 20 -20 16 -43 30 -51 30 -7 0 -24 12 -37 27 -13 15
-26 24 -30 21 -3 -4 -27 1 -53 11 -58 23 -77 20 -112 -19 -38 -41 -36 -64 6
-130 19 -30 35 -67 35 -82 0 -15 12 -57 26 -93 21 -53 24 -68 14 -80 -11 -13
-14 -13 -26 2 -21 28 -16 38 8 17 12 -10 4 4 -18 31 -21 28 -50 74 -63 103
-28 59 -41 66 -41 21 0 -16 4 -28 9 -24 11 6 35 -60 28 -78 -3 -6 -9 0 -16 16
-6 15 -15 27 -20 27 -5 0 -17 7 -25 16 -9 8 -16 11 -16 5 0 -5 5 -13 10 -16
13 -8 2 -55 -18 -77 -8 -10 -19 -15 -25 -11 -6 3 -7 1 -3 -5 8 -13 -13 -16
-30 -4 -11 7 -34 46 -34 57 0 4 12 5 28 1 25 -5 26 -5 5 6 -13 6 -23 19 -23
28 0 32 32 124 62 177 34 59 34 61 3 223 -12 67 -13 99 -5 152 13 85 21 106
70 178 51 75 91 107 177 142 79 32 192 38 265 14 24 -8 64 -17 90 -21 26 -3
68 -17 95 -30 26 -14 48 -25 48 -25 0 0 2 476 4 1058 2 581 7 1246 10 1477 3
231 3 424 -1 429 -5 6 -8 135 -8 288 0 238 2 279 15 284 12 5 15 25 14 98 0
60 -3 84 -9 71 -5 -12 -9 95 -9 262 -1 178 3 284 9 288 6 4 10 80 10 196 0
124 -3 188 -10 184 -6 -4 -10 46 -10 143 0 124 3 151 15 156 13 4 15 36 15
193 0 286 25 411 109 539 89 139 232 219 416 233 105 9 2720 4 2774 -4z
m-4169 -6775 c0 -16 4 -30 9 -30 6 0 6 -12 0 -32 -5 -18 -9 -54 -9 -80 0 -27
-4 -48 -9 -48 -4 0 -16 -39 -25 -87 -20 -104 -60 -223 -93 -276 -23 -36 -23
-40 -8 -56 12 -14 13 -24 6 -42 -5 -13 -10 -21 -10 -17 -1 4 -15 -6 -31 -24
-48 -50 -56 -31 -42 99 7 59 12 133 12 163 1 104 37 221 107 350 35 66 70 110
85 110 4 0 8 -13 8 -30z m367 8 c-3 -8 -6 -5 -6 6 -1 11 2 17 5 13 3 -3 4 -12
1 -19z m-258 -49 c-9 -5 -15 -4 -18 2 -2 6 3 15 10 20 9 5 15 4 18 -2 2 -6 -3
-15 -10 -20z m111 -1 c0 -5 -4 -8 -10 -8 -5 0 -10 10 -10 23 0 18 2 19 10 7 5
-8 10 -18 10 -22z m-140 -18 c0 -5 -7 -10 -15 -10 -7 0 -19 -8 -25 -17 -11
-17 -11 -16 -5 1 3 11 0 23 -7 28 -8 5 -1 8 20 8 17 0 32 -4 32 -10z m-286
-786 c10 -25 5 -106 -8 -149 l-13 -40 -7 62 c-12 92 8 180 28 127z m439 -148
c3 -8 21 -17 39 -19 28 -3 30 -5 13 -11 -12 -4 -25 -17 -30 -28 -6 -12 -26
-26 -45 -32 -20 -6 -39 -21 -45 -33 -10 -23 -65 -50 -65 -32 0 20 -27 7 -54
-27 -16 -20 -47 -44 -70 -54 -39 -17 -99 -21 -113 -6 -13 12 -23 6 -23 -16 0
-33 -17 -9 -25 35 -6 30 -4 37 8 37 9 0 20 6 24 13 8 13 78 68 167 131 50 35
106 54 167 55 32 1 49 -4 52 -13z m711 -55 c-6 -36 -49 -89 -62 -76 -3 3 -1 9
6 14 9 5 10 20 4 53 -8 42 -7 47 12 56 32 15 48 -4 40 -47z m82 -59 c-12 -11
-18 7 -10 30 l8 23 4 -23 c2 -13 1 -26 -2 -30z m-38 -38 c-7 -27 -13 -51 -15
-53 -6 -8 -63 -8 -63 1 0 4 5 8 10 8 6 0 10 6 10 14 0 17 31 78 45 88 20 14
25 -10 13 -58z m2997 -4 c3 -5 15 -10 26 -10 10 0 19 -4 19 -8 0 -5 9 -19 20
-32 25 -29 18 -41 -20 -30 -40 11 -50 19 -50 36 0 7 -9 19 -20 26 -11 7 -20
16 -20 20 0 12 38 10 45 -2z m-3031 -117 c-12 -50 -23 -60 -19 -18 4 48 3 45
15 45 6 0 8 -11 4 -27z m-23 -96 c-8 -8 -11 -7 -11 4 0 20 13 34 18 19 3 -7
-1 -17 -7 -23z m3969 -92 c0 -8 -4 -15 -10 -15 -5 0 -10 7 -10 15 0 8 5 15 10
15 6 0 10 -7 10 -15z m-55 -65 c-3 -5 -10 -10 -16 -10 -5 0 -9 5 -9 10 0 6 7
10 16 10 8 0 12 -4 9 -10z m-4767 -739 c2 -13 -1 -28 -7 -34 -6 -6 -11 -21
-11 -32 0 -12 -6 -35 -14 -51 -8 -16 -19 -41 -25 -56 -6 -16 -17 -28 -25 -28
-11 0 -13 14 -11 66 2 37 9 72 14 77 6 6 11 17 11 24 0 18 42 64 54 60 6 -2
13 -14 14 -26z"/>
<path d="M6082 10268 c-39 -39 17 -100 58 -63 24 22 25 38 4 59 -18 19 -45 21
-62 4z"/>
<path d="M5462 10034 c-43 -30 -17 -104 37 -104 41 0 61 18 61 55 0 35 -28 65
-60 65 -9 0 -26 -7 -38 -16z"/>
<path d="M5813 9994 c-3 -8 -1 -20 4 -25 5 -5 126 -8 299 -7 281 3 289 4 289
23 0 19 -8 20 -293 23 -259 2 -293 0 -299 -14z"/>
<path d="M4413 9549 c-11 -14 -26 -1124 -38 -2759 -3 -399 -7 -993 -10 -1320
-9 -1107 -10 -1928 -2 -1937 5 -4 311 -9 681 -11 l672 -2 12 46 c15 57 64 118
120 151 23 14 42 28 42 32 0 4 -13 20 -29 35 -72 69 -96 213 -52 311 65 147
230 219 376 165 77 -29 155 -105 178 -175 49 -144 -14 -304 -146 -371 -17 -9
-34 -18 -36 -20 -2 -2 15 -27 38 -55 24 -27 59 -76 78 -107 20 -31 33 -49 30
-40 -5 13 -1 18 11 18 9 0 305 0 657 0 l640 0 75 146 c89 174 113 204 165 204
27 0 44 8 66 29 34 35 36 47 8 54 -12 3 -18 10 -15 15 3 5 -4 27 -15 48 -30
58 -31 127 -4 242 3 12 1 22 -4 22 -11 0 -24 -52 -61 -239 -16 -85 -32 -157
-36 -160 -3 -3 -4 1271 -2 2831 2 1560 -1 2840 -5 2845 -5 4 -768 10 -1696 12
-1408 2 -1689 1 -1698 -10z m2268 -150 c39 -42 39 -87 0 -131 -24 -27 -36 -33
-71 -33 -35 0 -47 6 -71 33 -19 21 -29 43 -29 63 0 33 15 69 30 69 5 0 2 -12
-6 -27 -20 -39 -18 -57 12 -92 62 -74 183 1 142 87 -7 14 -24 32 -38 39 -23
12 -25 11 -31 -15 -6 -26 -7 -26 -8 6 -1 26 3 32 20 32 12 0 34 -14 50 -31z
m-2036 -9 c-15 -28 -14 -30 4 -30 34 0 32 -16 -5 -62 -46 -55 -59 -60 -40 -13
20 47 20 45 -4 45 -28 0 -25 14 11 55 38 43 55 46 34 5z m3005 16 c6 -8 26
-16 43 -18 l32 -3 0 -75 0 -75 -119 -3 c-89 -2 -121 1 -128 10 -9 15 -11 109
-2 132 4 9 18 16 34 16 15 0 33 7 40 15 16 19 84 20 100 1z m-1030 -80 c-8 -8
-16 -5 -31 13 -29 35 -23 45 12 20 23 -16 28 -24 19 -33z m-1085 14 c8 0 19 8
24 18 8 13 10 7 10 -28 -1 -25 -3 -37 -6 -27 -2 9 -13 17 -23 17 -10 0 -21 -8
-23 -17 -3 -10 -5 2 -5 27 0 25 2 37 5 28 2 -10 11 -18 18 -18z m115 15 c7 -9
10 -25 6 -41 -5 -20 -12 -25 -34 -22 -22 2 -27 8 -28 33 0 17 1 33 3 38 7 12
40 8 53 -8z m83 1 c3 -8 2 -27 -2 -43 -7 -23 -10 -25 -16 -10 -4 9 -11 17 -15
17 -5 0 -11 -8 -13 -17 -3 -10 -5 1 -6 25 -1 38 1 42 23 42 13 0 26 -6 29 -14z
m779 -214 l1268 -3 3 -667 c2 -367 1 -1335 -2 -2152 -3 -817 -4 -1527 -2
-1577 l3 -93 -62 0 -62 0 6 63 c31 328 29 388 -24 642 -69 331 -95 416 -206
679 -82 191 -151 321 -189 354 -80 71 -239 139 -450 194 l-90 23 -3 40 c-5 70
-32 221 -57 317 -14 51 -25 120 -25 153 0 62 -22 203 -40 265 -6 19 -17 96
-24 171 -23 227 -86 376 -231 539 l-80 91 -141 44 c-159 51 -213 55 -359 30
-135 -24 -204 -64 -327 -188 -48 -49 -71 -80 -79 -109 -6 -23 -22 -64 -35 -92
-13 -27 -24 -56 -24 -63 0 -7 -12 -52 -27 -100 -25 -82 -27 -101 -27 -268 0
-169 1 -187 32 -307 39 -158 90 -298 148 -406 44 -81 44 -83 27 -107 -25 -33
-110 -82 -158 -91 -22 -3 -65 -20 -95 -35 -30 -16 -69 -29 -87 -29 -34 0 -118
-37 -270 -118 -51 -27 -101 -52 -111 -54 -22 -6 -80 -78 -130 -160 -18 -30
-48 -70 -67 -88 -29 -28 -35 -41 -35 -74 0 -29 -9 -54 -31 -86 -26 -38 -29
-51 -24 -80 12 -58 8 -339 -5 -437 -11 -72 -11 -104 -2 -143 12 -51 2 -100
-21 -100 -13 0 -2 1558 23 3240 5 349 10 669 10 710 l0 75 408 0 c224 0 977
-2 1674 -3z m-50 -3693 c3 -24 7 -114 7 -199 1 -85 6 -171 12 -190 6 -19 11
-59 10 -88 -2 -51 -1 -53 21 -50 20 3 24 10 28 62 4 45 2 64 -11 80 -13 17
-17 55 -21 205 l-5 184 20 -39 c20 -40 65 -116 172 -289 34 -55 100 -167 145
-250 46 -82 92 -162 102 -177 10 -14 18 -31 18 -36 0 -7 -66 -10 -192 -9
l-192 2 -41 70 c-23 39 -108 181 -190 317 -82 139 -145 254 -142 262 8 20 230
197 242 193 5 -2 13 -24 17 -48z m-287 -379 c7 -57 24 -88 43 -76 5 3 7 18 5
33 -4 27 -4 27 11 9 9 -11 37 -60 62 -110 26 -50 69 -128 95 -174 27 -45 49
-85 49 -87 0 -3 -32 -5 -70 -5 l-70 0 6 27 c5 19 2 30 -11 39 -10 8 -21 30
-24 51 -7 39 -18 46 -35 21 -6 -10 -2 -35 11 -76 l20 -62 -121 0 -121 0 -35
66 c-21 39 -44 70 -57 75 -17 6 -23 17 -23 38 0 17 -5 42 -12 56 -9 19 -9 28
0 37 7 7 12 20 12 30 0 23 33 40 63 33 25 -7 90 38 151 104 17 17 33 31 37 31
4 0 10 -27 14 -60z m-305 -350 l30 -60 -45 0 -45 0 0 44 c0 93 19 98 60 16z
m-1455 -22 c6 -22 4 -28 -9 -28 -12 0 -16 10 -16 37 0 41 14 36 25 -9z m370
-128 c3 -6 -1 -7 -9 -4 -18 7 -21 14 -7 14 6 0 13 -4 16 -10z m144 -37 c0 -33
-3 -42 -8 -29 -5 14 -10 16 -15 8 -11 -18 -36 11 -35 40 l0 23 11 -22 c13 -28
28 -30 28 -5 0 17 8 32 17 32 2 0 3 -21 2 -47z m46 33 c-18 -13 -18 -13 1 -24
17 -10 17 -11 2 -12 -10 0 -18 -4 -18 -10 0 -5 8 -14 18 -19 15 -9 15 -10 -5
-11 -21 0 -23 5 -23 45 0 40 3 45 22 45 21 0 21 -1 3 -14z m83 1 c6 -7 7 -18
3 -26 -5 -7 -6 -23 -4 -35 5 -21 5 -21 -11 -1 -13 17 -17 18 -26 5 -7 -11 -10
-4 -10 28 0 34 3 42 19 42 10 0 23 -6 29 -13z m-218 -7 c0 -5 -4 -10 -10 -10
-5 0 -10 5 -10 10 0 6 5 10 10 10 6 0 10 -4 10 -10z m284 -14 c3 -13 9 -32 12
-43 5 -16 4 -16 -11 2 -16 20 -16 20 -31 1 -17 -24 -18 -11 -3 33 13 37 25 40
33 7z m-274 -33 c0 -14 -2 -15 -9 -4 -5 7 -14 10 -20 7 -6 -4 -11 -2 -11 3 0
6 9 11 20 11 12 0 20 -7 20 -17z m1122 -14 c-13 -5 -20 -13 -17 -19 4 -6 10
-8 15 -5 5 3 11 1 15 -5 3 -5 -1 -10 -9 -10 -8 0 -20 -8 -25 -17 -8 -14 -10
-9 -11 25 0 39 2 42 28 41 26 0 27 0 4 -10z m106 -26 c2 -24 -2 -34 -18 -43
-28 -15 -50 3 -50 40 0 34 8 42 40 38 20 -2 26 -9 28 -35z m65 30 c-7 -2 -13
-20 -13 -39 0 -19 -4 -34 -10 -34 -5 0 -10 15 -10 34 0 19 -6 37 -12 39 -7 3
3 5 22 5 19 0 29 -2 23 -5z m85 -34 c3 -41 -16 -56 -49 -39 -36 20 -21 83 20
78 22 -3 26 -9 29 -39z m291 27 c6 -7 10 -29 9 -49 -3 -33 -5 -36 -28 -30 -37
9 -40 12 -40 42 0 44 35 66 59 37z m255 -2 c31 -31 13 -74 -31 -74 -20 0 -23
5 -23 38 0 55 22 69 54 36z m76 6 c8 -5 15 -24 15 -45 0 -36 -9 -46 -19 -20
-7 20 -24 19 -29 -2 -3 -10 -5 0 -6 23 -1 53 8 64 39 44z m249 -4 c7 -8 11
-27 9 -43 -2 -22 -8 -28 -28 -28 -21 0 -26 5 -28 34 -5 45 23 66 47 37z m258
-3 c3 -7 -3 -9 -16 -6 -12 3 -21 10 -21 15 0 13 32 6 37 -9z m-1982 -30 c9
-20 14 -41 11 -47 -3 -11 -15 13 -30 62 -12 36 2 25 19 -15z m45 33 c0 -14
-21 -58 -26 -54 -8 8 7 58 17 58 5 0 9 -2 9 -4z m30 -42 c0 -27 -4 -43 -10
-39 -17 11 -11 85 7 85 2 0 3 -21 3 -46z m78 34 c29 -29 7 -78 -35 -78 -21 0
-23 5 -23 45 0 40 2 45 23 45 13 0 28 -5 35 -12z m65 2 c-13 -5 -23 -12 -23
-15 0 -3 10 -10 23 -15 l22 -9 -22 0 c-13 -1 -23 -6 -23 -11 0 -6 10 -15 23
-20 21 -8 21 -9 -5 -9 -27 -1 -28 1 -28 44 0 43 1 45 28 44 26 0 26 -1 5 -9z
m100 -11 c5 -9 7 -28 3 -43 -5 -22 -11 -27 -34 -24 -23 2 -28 8 -30 37 -5 49
36 69 61 30z m877 -14 c0 -24 5 -35 15 -35 10 0 15 11 15 35 0 19 5 35 11 35
6 0 9 -16 7 -37 -3 -35 -6 -38 -33 -38 -27 0 -30 3 -33 38 -2 21 1 37 7 37 6
0 11 -16 11 -35z m120 -1 c7 -19 9 -38 6 -41 -3 -4 -6 -1 -6 5 0 16 -37 15
-43 0 -3 -8 -6 -6 -6 4 -1 21 20 68 30 68 4 0 13 -16 19 -36z m245 -1 c8 -20
12 -39 9 -42 -4 -3 -9 0 -11 7 -3 6 -11 12 -18 12 -7 0 -15 -6 -18 -12 -2 -7
-7 -10 -11 -7 -6 6 20 79 29 79 3 0 12 -16 20 -37z m91 22 c4 -8 3 -26 0 -40
-5 -18 -13 -25 -31 -25 -22 0 -25 4 -25 40 0 36 2 40 25 40 14 0 28 -7 31 -15z
m384 11 c0 -3 -4 -8 -10 -11 -5 -3 -10 -1 -10 4 0 6 5 11 10 11 6 0 10 -2 10
-4z m-69 -47 c-11 -11 -22 -19 -23 -19 -2 0 -4 8 -4 19 0 13 7 19 24 19 23 0
23 -1 3 -19z m75 -1 c5 -7 2 -9 -8 -5 -9 3 -21 0 -27 -6 -9 -9 -11 -8 -6 6 8
19 30 23 41 5z m-2591 -18 c3 -5 -1 -10 -10 -10 -9 0 -13 5 -10 10 3 6 8 10
10 10 2 0 7 -4 10 -10z m128 -32 c-6 -43 -10 -55 -17 -47 -2 2 -6 23 -9 47 -4
36 -2 42 13 42 15 0 17 -6 13 -42z m-89 -5 c-9 -52 -14 -54 -14 -5 0 23 5 42
10 42 7 0 8 -14 4 -37z m36 -5 c-1 -40 -2 -42 -15 -24 -17 23 -20 40 -5 31 6
-3 10 3 10 14 0 12 2 21 5 21 3 0 5 -19 5 -42z m110 28 c0 -8 -6 -17 -12 -19
-8 -4 -7 -6 3 -6 9 -1 19 -10 22 -20 4 -17 2 -18 -14 -8 -16 10 -21 9 -29 -3
-13 -21 -12 -3 2 37 12 34 28 44 28 19z m-180 -20 c0 -2 -7 -6 -15 -10 -8 -3
-15 -1 -15 4 0 6 7 10 15 10 8 0 15 -2 15 -4z m-53 -42 c-3 -3 -12 -4 -19 -1
-8 3 -5 6 6 6 11 1 17 -2 13 -5z m50 0 c-3 -3 -12 -4 -19 -1 -8 3 -5 6 6 6 11
1 17 -2 13 -5z m2703 -284 c11 -11 20 -28 20 -37 0 -14 -2 -15 -9 -5 -4 8 -11
13 -15 12 -4 -1 -21 4 -38 11 -28 12 -32 11 -49 -10 -11 -13 -19 -20 -19 -16
0 4 -7 2 -15 -5 -13 -11 -10 -15 25 -31 35 -16 43 -16 67 -4 40 21 54 19 95
-15 41 -34 52 -72 33 -117 -16 -38 -42 -53 -90 -53 -43 0 -95 44 -95 80 0 12
-13 35 -30 50 -22 20 -30 37 -30 62 0 32 21 74 44 90 22 16 86 8 106 -12z"/>
<path d="M7560 9396 c-6 -8 -24 -16 -38 -18 -26 -3 -27 -6 -30 -71 l-3 -68
113 3 113 3 0 65 c0 65 0 65 -30 68 -16 2 -34 10 -38 18 -10 18 -71 18 -87 0z
m97 -56 c12 -24 9 -40 -8 -40 -5 0 -9 11 -9 24 0 27 -26 41 -54 30 -9 -3 -16
-1 -16 4 0 14 30 20 55 12 11 -4 25 -18 32 -30z m-91 -25 c-7 -19 14 -35 49
-36 28 0 29 -1 8 -11 -12 -6 -29 -8 -37 -5 -21 8 -49 54 -41 67 9 14 28 1 21
-15z"/>
<path d="M5612 9328 c2 -13 8 -23 13 -23 6 0 11 10 13 23 2 15 -2 22 -13 22
-11 0 -15 -7 -13 -22z"/>
<path d="M5695 9340 c4 -6 11 -8 16 -5 14 9 11 15 -7 15 -8 0 -12 -5 -9 -10z"/>
<path d="M6670 7965 c0 -8 4 -15 8 -15 5 0 9 7 9 15 0 8 -4 15 -9 15 -4 0 -8
-7 -8 -15z"/>
<path d="M6770 7950 c0 -5 5 -10 10 -10 6 0 10 5 10 10 0 6 -4 10 -10 10 -5 0
-10 -4 -10 -10z"/>
<path d="M6565 7850 c-18 -8 -17 -9 8 -9 16 -1 26 3 22 9 -3 6 -7 10 -8 9 -1
0 -11 -4 -22 -9z"/>
<path d="M5080 7826 c0 -13 12 -16 73 -15 83 1 142 17 66 18 -25 1 -67 4 -93
7 -38 6 -46 4 -46 -10z"/>
<path d="M6635 7781 c-7 -12 12 -24 25 -16 11 7 4 25 -10 25 -5 0 -11 -4 -15
-9z"/>
<path d="M6668 7413 c7 -3 16 -2 19 1 4 3 -2 6 -13 5 -11 0 -14 -3 -6 -6z"/>
<path d="M5000 7370 c0 -5 7 -10 15 -10 8 0 15 5 15 10 0 6 -7 10 -15 10 -8 0
-15 -4 -15 -10z"/>
<path d="M6618 7373 c6 -2 18 -2 25 0 6 3 1 5 -13 5 -14 0 -19 -2 -12 -5z"/>
<path d="M4946 7341 c-4 -5 -3 -12 1 -14 12 -7 123 5 118 12 -7 12 -113 13
-119 2z"/>
<path d="M6060 4900 c0 -36 3 -40 25 -40 18 0 26 7 31 25 7 29 -10 55 -37 55
-15 0 -19 -8 -19 -40z m45 0 c0 -16 -6 -26 -17 -28 -14 -3 -18 3 -18 28 0 25
4 31 18 28 11 -2 17 -12 17 -28z"/>
<path d="M6140 4903 c0 -29 3 -34 10 -23 9 13 12 13 25 -4 14 -18 14 -18 13 0
0 11 0 24 2 29 6 24 -2 35 -25 35 -22 0 -25 -4 -25 -37z m43 12 c1 -5 -6 -11
-15 -13 -11 -2 -18 3 -18 13 0 17 30 18 33 0z"/>
<path d="M5970 4900 c0 -32 1 -33 14 -14 8 10 11 21 8 24 -4 3 -10 9 -14 14
-5 5 -8 -6 -8 -24z"/>
<path d="M6017 4918 c-2 -7 -1 -22 4 -33 6 -16 8 -14 8 13 1 33 -4 41 -12 20z"/>
<path d="M5026 4563 c-11 -11 -6 -23 9 -23 8 0 15 4 15 9 0 13 -16 22 -24 14z"/>
<path d="M5100 4540 c0 -5 5 -10 11 -10 5 0 7 5 4 10 -3 6 -8 10 -11 10 -2 0
-4 -4 -4 -10z"/>
<path d="M6024 4485 c-9 -21 3 -45 21 -45 10 0 15 10 15 30 0 32 -26 43 -36
15z"/>
<path d="M6187 4494 c-4 -4 -7 -18 -7 -31 0 -18 5 -24 18 -21 10 2 17 12 17
27 0 24 -15 37 -28 25z"/>
<path d="M6481 4486 c-14 -17 -5 -59 12 -53 23 7 32 36 16 52 -14 14 -17 14
-28 1z"/>
<path d="M6738 4465 c-3 -14 -1 -28 3 -31 15 -9 29 6 29 32 0 32 -26 31 -32
-1z"/>
<path d="M6822 4479 c2 -6 8 -10 13 -10 5 0 11 4 13 10 2 6 -4 11 -13 11 -9 0
-15 -5 -13 -11z"/>
<path d="M7062 4463 c4 -36 33 -39 33 -3 0 16 -6 26 -18 28 -15 3 -18 -2 -15
-25z"/>
<path d="M5490 4461 c0 -21 5 -31 16 -31 11 0 14 8 12 27 -4 39 -28 42 -28 4z"/>
<path d="M5650 4475 c-9 -11 -11 -22 -4 -32 13 -21 25 -21 38 -1 8 14 7 21 -5
33 -14 15 -17 15 -29 0z"/>
<path d="M6660 4470 c0 -5 5 -10 10 -10 6 0 10 5 10 10 0 6 -4 10 -10 10 -5 0
-10 -4 -10 -10z"/>
<path d="M6980 4460 c0 -32 23 -42 34 -15 8 21 -3 45 -20 45 -9 0 -14 -11 -14
-30z"/>
<path d="M7415 4050 c-3 -5 -1 -10 4 -10 6 0 11 5 11 10 0 6 -2 10 -4 10 -3 0
-8 -4 -11 -10z"/>
<path d="M7988 4745 c-21 -86 -34 -238 -19 -214 15 24 43 193 39 242 -3 42 -3
41 -20 -28z"/>
<path d="M6045 4224 c-115 -28 -189 -106 -202 -213 -9 -76 12 -136 67 -193 25
-26 52 -48 60 -48 7 0 -5 17 -27 38 -82 76 -103 171 -60 265 75 165 302 176
394 20 23 -40 28 -59 27 -113 -1 -118 -68 -193 -199 -226 -26 -7 -27 -8 -8
-11 65 -12 165 52 204 130 42 82 33 186 -25 261 -44 59 -165 105 -231 90z"/>
<path d="M8489 3769 c29 -28 55 -48 57 -46 7 7 -7 37 -17 37 -4 0 -24 14 -42
30 -57 50 -56 33 2 -21z"/>
<path d="M8380 3628 c0 -12 85 -92 116 -111 24 -14 15 9 -13 36 -16 15 -41 40
-58 57 -32 32 -45 37 -45 18z"/>
<path d="M5703 3360 c0 -25 2 -35 4 -22 2 12 2 32 0 45 -2 12 -4 2 -4 -23z"/>
<path d="M6236 3242 c5 -5 30 -17 57 -26 26 -10 47 -22 47 -27 0 -5 6 -9 14
-9 8 0 27 -10 43 -23 15 -12 42 -29 58 -37 17 -8 36 -22 43 -30 12 -13 13 -12
7 5 -11 35 -46 80 -79 101 -50 33 -222 74 -190 46z"/>
<path d="M7550 2571 c0 -5 9 -11 21 -14 16 -4 18 -3 8 9 -13 16 -29 19 -29 5z"/>
<path d="M8350 2516 c0 -2 12 -12 28 -21 l27 -18 -19 21 c-17 20 -36 29 -36
18z"/>
<path d="M8270 2420 c0 -5 5 -10 10 -10 6 0 10 5 10 10 0 6 -4 10 -10 10 -5 0
-10 -4 -10 -10z"/>
<path d="M8246 2387 c-21 -15 -10 -29 34 -42 24 -7 24 -7 9 11 -9 11 -18 25
-20 32 -3 10 -8 10 -23 -1z"/>
<path d="M7755 2349 c-11 -16 -1 -19 13 -3 7 8 8 14 3 14 -5 0 -13 -5 -16 -11z"/>
<path d="M7670 2319 c0 -5 5 -7 10 -4 6 3 10 8 10 11 0 2 -4 4 -10 4 -5 0 -10
-5 -10 -11z"/>
</g>
</svg>
